<mxfile host="app.diagrams.net" modified="2023-05-13T13:26:23.220Z" agent="Mozilla/5.0 (Windows NT 10.0; Win64; x64) AppleWebKit/537.36 (KHTML, like Gecko) Chrome/112.0.0.0 Safari/537.36 OPR/98.0.0.0" etag="t-2MXnzdd8u3Nc9xXQ3n" version="21.3.0" type="device">
  <diagram name="Sivu-1" id="hLKyqFuHjp7s1-mjZBHI">
    <mxGraphModel dx="1639" dy="901" grid="1" gridSize="10" guides="1" tooltips="1" connect="1" arrows="1" fold="1" page="1" pageScale="1" pageWidth="1169" pageHeight="827" math="0" shadow="0">
      <root>
        <mxCell id="0" />
        <mxCell id="1" parent="0" />
        <mxCell id="6Ip6Od9C2XImfKZGI-Cb-1" value="käyttäjä" style="shape=umlActor;verticalLabelPosition=bottom;verticalAlign=top;html=1;outlineConnect=0;fontStyle=1;fontSize=16;strokeWidth=2;" vertex="1" parent="1">
          <mxGeometry x="100" y="90" width="60" height="100" as="geometry" />
        </mxCell>
        <mxCell id="6Ip6Od9C2XImfKZGI-Cb-2" value="ylläpitäjä" style="shape=umlActor;verticalLabelPosition=bottom;verticalAlign=top;html=1;outlineConnect=0;fontStyle=1;fontSize=16;strokeWidth=2;" vertex="1" parent="1">
          <mxGeometry x="100" y="620" width="60" height="100" as="geometry" />
        </mxCell>
        <mxCell id="6Ip6Od9C2XImfKZGI-Cb-4" value="&lt;div style=&quot;&quot;&gt;&lt;span style=&quot;background-color: initial;&quot;&gt;Äänestyssovellus&lt;/span&gt;&lt;/div&gt;" style="whiteSpace=wrap;html=1;aspect=fixed;align=left;verticalAlign=top;" vertex="1" parent="1">
          <mxGeometry x="230" y="10" width="800" height="800" as="geometry" />
        </mxCell>
        <mxCell id="6Ip6Od9C2XImfKZGI-Cb-24" style="rounded=0;orthogonalLoop=1;jettySize=auto;html=1;exitX=0;exitY=0.5;exitDx=0;exitDy=0;entryX=1;entryY=1;entryDx=0;entryDy=0;entryPerimeter=0;endArrow=none;endFill=0;" edge="1" parent="1" source="6Ip6Od9C2XImfKZGI-Cb-6" target="6Ip6Od9C2XImfKZGI-Cb-1">
          <mxGeometry relative="1" as="geometry" />
        </mxCell>
        <mxCell id="6Ip6Od9C2XImfKZGI-Cb-6" value="Kirjautuminen" style="ellipse;whiteSpace=wrap;html=1;" vertex="1" parent="1">
          <mxGeometry x="500" y="370" width="120" height="70" as="geometry" />
        </mxCell>
        <mxCell id="6Ip6Od9C2XImfKZGI-Cb-25" style="rounded=0;orthogonalLoop=1;jettySize=auto;html=1;exitX=0;exitY=0.5;exitDx=0;exitDy=0;endArrow=none;endFill=0;" edge="1" parent="1" source="6Ip6Od9C2XImfKZGI-Cb-7">
          <mxGeometry relative="1" as="geometry">
            <mxPoint x="160" y="190" as="targetPoint" />
          </mxGeometry>
        </mxCell>
        <mxCell id="6Ip6Od9C2XImfKZGI-Cb-7" value="Rekisteröityminen" style="ellipse;whiteSpace=wrap;html=1;" vertex="1" parent="1">
          <mxGeometry x="500" y="440" width="120" height="70" as="geometry" />
        </mxCell>
        <mxCell id="6Ip6Od9C2XImfKZGI-Cb-21" style="rounded=0;orthogonalLoop=1;jettySize=auto;html=1;exitX=0;exitY=0.5;exitDx=0;exitDy=0;entryX=1;entryY=0.3333333333333333;entryDx=0;entryDy=0;entryPerimeter=0;endArrow=none;endFill=0;" edge="1" parent="1" source="6Ip6Od9C2XImfKZGI-Cb-8" target="6Ip6Od9C2XImfKZGI-Cb-1">
          <mxGeometry relative="1" as="geometry" />
        </mxCell>
        <mxCell id="6Ip6Od9C2XImfKZGI-Cb-8" value="Äänestysten selaaminen" style="ellipse;whiteSpace=wrap;html=1;" vertex="1" parent="1">
          <mxGeometry x="380" y="105" width="120" height="70" as="geometry" />
        </mxCell>
        <mxCell id="6Ip6Od9C2XImfKZGI-Cb-22" style="rounded=0;orthogonalLoop=1;jettySize=auto;html=1;exitX=0;exitY=0.5;exitDx=0;exitDy=0;endArrow=none;endFill=0;entryX=1;entryY=0.3333333333333333;entryDx=0;entryDy=0;entryPerimeter=0;" edge="1" parent="1" source="6Ip6Od9C2XImfKZGI-Cb-10" target="6Ip6Od9C2XImfKZGI-Cb-1">
          <mxGeometry relative="1" as="geometry">
            <mxPoint x="160" y="130" as="targetPoint" />
          </mxGeometry>
        </mxCell>
        <mxCell id="6Ip6Od9C2XImfKZGI-Cb-10" value="Äänestyksen valinta" style="ellipse;whiteSpace=wrap;html=1;" vertex="1" parent="1">
          <mxGeometry x="380" y="190" width="130" height="75" as="geometry" />
        </mxCell>
        <mxCell id="6Ip6Od9C2XImfKZGI-Cb-23" style="rounded=0;orthogonalLoop=1;jettySize=auto;html=1;exitX=0;exitY=0.5;exitDx=0;exitDy=0;endArrow=none;endFill=0;entryX=1;entryY=0.3333333333333333;entryDx=0;entryDy=0;entryPerimeter=0;" edge="1" parent="1" source="6Ip6Od9C2XImfKZGI-Cb-12" target="6Ip6Od9C2XImfKZGI-Cb-1">
          <mxGeometry relative="1" as="geometry">
            <mxPoint x="160" y="120" as="targetPoint" />
          </mxGeometry>
        </mxCell>
        <mxCell id="6Ip6Od9C2XImfKZGI-Cb-12" value="Äänestäminen" style="ellipse;whiteSpace=wrap;html=1;" vertex="1" parent="1">
          <mxGeometry x="380" y="290" width="130" height="65" as="geometry" />
        </mxCell>
        <mxCell id="6Ip6Od9C2XImfKZGI-Cb-18" style="rounded=0;orthogonalLoop=1;jettySize=auto;html=1;exitX=0;exitY=0.5;exitDx=0;exitDy=0;entryX=1;entryY=0.3333333333333333;entryDx=0;entryDy=0;entryPerimeter=0;endArrow=none;endFill=0;" edge="1" parent="1" source="6Ip6Od9C2XImfKZGI-Cb-14" target="6Ip6Od9C2XImfKZGI-Cb-2">
          <mxGeometry relative="1" as="geometry" />
        </mxCell>
        <mxCell id="6Ip6Od9C2XImfKZGI-Cb-14" value="Äänestysten luominen ja poistaminen" style="ellipse;whiteSpace=wrap;html=1;" vertex="1" parent="1">
          <mxGeometry x="380" y="610" width="120" height="70" as="geometry" />
        </mxCell>
        <mxCell id="6Ip6Od9C2XImfKZGI-Cb-19" style="rounded=0;orthogonalLoop=1;jettySize=auto;html=1;exitX=0;exitY=0.5;exitDx=0;exitDy=0;entryX=1;entryY=0.3333333333333333;entryDx=0;entryDy=0;entryPerimeter=0;endArrow=none;endFill=0;" edge="1" parent="1" source="6Ip6Od9C2XImfKZGI-Cb-16" target="6Ip6Od9C2XImfKZGI-Cb-2">
          <mxGeometry relative="1" as="geometry" />
        </mxCell>
        <mxCell id="6Ip6Od9C2XImfKZGI-Cb-16" value="Äänestysten valvominen" style="ellipse;whiteSpace=wrap;html=1;" vertex="1" parent="1">
          <mxGeometry x="380" y="700" width="120" height="70" as="geometry" />
        </mxCell>
        <mxCell id="6Ip6Od9C2XImfKZGI-Cb-20" style="rounded=0;orthogonalLoop=1;jettySize=auto;html=1;exitX=0;exitY=0.5;exitDx=0;exitDy=0;endArrow=none;endFill=0;entryX=1;entryY=0.3333333333333333;entryDx=0;entryDy=0;entryPerimeter=0;" edge="1" parent="1" source="6Ip6Od9C2XImfKZGI-Cb-17" target="6Ip6Od9C2XImfKZGI-Cb-2">
          <mxGeometry relative="1" as="geometry">
            <mxPoint x="160" y="650" as="targetPoint" />
          </mxGeometry>
        </mxCell>
        <mxCell id="6Ip6Od9C2XImfKZGI-Cb-17" value="Tilien hallitseminen" style="ellipse;whiteSpace=wrap;html=1;" vertex="1" parent="1">
          <mxGeometry x="380" y="530" width="120" height="70" as="geometry" />
        </mxCell>
        <mxCell id="6Ip6Od9C2XImfKZGI-Cb-27" value="&amp;lt;&amp;lt; include &amp;gt;&amp;gt;" style="rounded=0;orthogonalLoop=1;jettySize=auto;html=1;exitX=0;exitY=0.5;exitDx=0;exitDy=0;dashed=1;strokeWidth=2;endArrow=none;endFill=0;startArrow=block;startFill=1;" edge="1" parent="1" source="6Ip6Od9C2XImfKZGI-Cb-26" target="6Ip6Od9C2XImfKZGI-Cb-10">
          <mxGeometry relative="1" as="geometry" />
        </mxCell>
        <mxCell id="6Ip6Od9C2XImfKZGI-Cb-26" value="Äänestyksen katsominen" style="ellipse;whiteSpace=wrap;html=1;" vertex="1" parent="1">
          <mxGeometry x="610" y="105" width="130" height="75" as="geometry" />
        </mxCell>
      </root>
    </mxGraphModel>
  </diagram>
</mxfile>
